<svg width="512" height="512" viewBox="0 0 512 512" fill="none" xmlns="http://www.w3.org/2000/svg">
<path d="M336 344C335.979 339.054 334.431 334.235 331.567 330.203C328.703 326.17 324.663 323.121 320 321.472V302.808C344.402 288.72 363.474 266.973 374.257 240.941C385.04 214.908 386.931 186.045 379.639 158.828C372.346 131.611 356.276 107.561 333.921 90.4078C311.567 73.2546 284.177 63.957 256 63.957C227.823 63.957 200.433 73.2546 178.079 90.4078C155.724 107.561 139.654 131.611 132.361 158.828C125.069 186.045 126.96 214.908 137.743 240.941C148.526 266.973 167.598 288.72 192 302.808V321.472C187.754 322.954 184.012 325.605 181.208 329.121C178.403 332.636 176.648 336.873 176.146 341.342C175.645 345.811 176.416 350.331 178.372 354.381C180.328 358.431 183.388 361.846 187.2 364.232C185.41 367.31 184.338 370.752 184.064 374.302C183.789 377.851 184.319 381.417 185.614 384.734C186.909 388.05 188.935 391.031 191.543 393.456C194.15 395.88 197.27 397.685 200.672 398.736C202.259 408.025 207.074 416.456 214.269 422.541C221.464 428.627 230.577 431.977 240 432H272C281.422 431.975 290.533 428.624 297.726 422.538C304.919 416.453 309.733 408.024 311.32 398.736C314.722 397.686 317.844 395.882 320.452 393.458C323.06 391.034 325.087 388.052 326.383 384.736C327.679 381.419 328.209 377.853 327.935 374.303C327.661 370.753 326.589 367.311 324.8 364.232C328.223 362.079 331.045 359.095 333.003 355.557C334.962 352.02 335.993 348.044 336 344ZM144 192C143.993 172.157 149.258 152.669 159.257 135.529C169.255 118.389 183.628 104.213 200.904 94.4511C218.18 84.6897 237.739 79.6933 257.58 79.9733C277.421 80.2532 296.832 85.7994 313.825 96.0443C330.819 106.289 344.786 120.865 354.297 138.28C363.808 155.696 368.521 175.325 367.954 195.16C367.388 214.995 361.562 234.323 351.072 251.167C340.583 268.011 325.807 281.766 308.256 291.024C306.971 291.705 305.895 292.723 305.146 293.969C304.396 295.215 304 296.642 304 298.096V320H208V298.096C208 296.642 207.604 295.215 206.854 293.969C206.105 292.723 205.029 291.705 203.744 291.024C185.706 281.532 170.605 267.289 160.075 249.836C149.546 232.383 143.987 212.384 144 192ZM200 336H312C314.122 336 316.157 336.843 317.657 338.343C319.157 339.844 320 341.879 320 344C320 346.122 319.157 348.157 317.657 349.657C316.157 351.157 314.122 352 312 352H200C197.878 352 195.843 351.157 194.343 349.657C192.843 348.157 192 346.122 192 344C192 341.879 192.843 339.844 194.343 338.343C195.843 336.843 197.878 336 200 336ZM272 416H240C235.054 415.98 230.235 414.432 226.202 411.568C222.17 408.704 219.121 404.664 217.472 400H294.528C292.879 404.664 289.83 408.704 285.798 411.568C281.765 414.432 276.946 415.98 272 416ZM304 384H208C205.878 384 203.843 383.157 202.343 381.657C200.843 380.157 200 378.122 200 376C200 373.879 200.843 371.844 202.343 370.343C203.843 368.843 205.878 368 208 368H304C306.122 368 308.157 368.843 309.657 370.343C311.157 371.844 312 373.879 312 376C312 378.122 311.157 380.157 309.657 381.657C308.157 383.157 306.122 384 304 384Z" fill="#1F1F1F"/>
<path d="M264 216H248C245.878 216 243.843 215.157 242.343 213.657C240.843 212.157 240 210.122 240 208H224C224 214.365 226.529 220.47 231.029 224.971C235.53 229.471 241.635 232 248 232V240H264V232C270.365 232 276.47 229.471 280.971 224.971C285.471 220.47 288 214.365 288 208C288 201.635 285.471 195.53 280.971 191.029C276.47 186.529 270.365 184 264 184H248C245.878 184 243.843 183.157 242.343 181.657C240.843 180.157 240 178.122 240 176C240 173.878 240.843 171.843 242.343 170.343C243.843 168.843 245.878 168 248 168H264C266.122 168 268.157 168.843 269.657 170.343C271.157 171.843 272 173.878 272 176H288C288 169.635 285.471 163.53 280.971 159.029C276.47 154.529 270.365 152 264 152V144H248V152C241.635 152 235.53 154.529 231.029 159.029C226.529 163.53 224 169.635 224 176C224 182.365 226.529 188.47 231.029 192.971C235.53 197.471 241.635 200 248 200H264C266.122 200 268.157 200.843 269.657 202.343C271.157 203.843 272 205.878 272 208C272 210.122 271.157 212.157 269.657 213.657C268.157 215.157 266.122 216 264 216Z" fill="#1F1F1F"/>
<path d="M304 184H320V200H304V184Z" fill="#1F1F1F"/>
<path d="M192 184H208V200H192V184Z" fill="#1F1F1F"/>
<path d="M248 16H264V48H248V16Z" fill="#1F1F1F"/>
<path d="M125.882 73.2402L137.195 61.9265L159.823 84.5539L148.509 95.8677L125.882 73.2402Z" fill="#1F1F1F"/>
<path d="M80 184H112V200H80V184Z" fill="#1F1F1F"/>
<path d="M400 184H432V200H400V184Z" fill="#1F1F1F"/>
<path d="M352.12 84.5527L374.747 61.9253L386.061 73.239L363.434 95.8664L352.12 84.5527Z" fill="#1F1F1F"/>
<path d="M147 417.664L120 409.952V399.792C124.95 396.097 128.973 391.301 131.75 385.783C134.527 380.265 135.982 374.177 136 368V360C138.122 360 140.157 359.157 141.657 357.657C143.157 356.157 144 354.122 144 352V344C144 331.27 138.943 319.061 129.941 310.059C120.939 301.057 108.73 296 96 296C83.2696 296 71.0606 301.057 62.0589 310.059C53.0571 319.061 48 331.27 48 344V352C48 354.122 48.8429 356.157 50.3431 357.657C51.8434 359.157 53.8783 360 56 360V368C56.018 374.177 57.473 380.265 60.25 385.783C63.0269 391.301 67.0497 396.097 72 399.792V409.952L45.008 417.664C36.6583 420.078 29.317 425.135 24.0864 432.076C18.8558 439.018 16.0183 447.469 16 456.16V488C16 490.122 16.8429 492.157 18.3431 493.657C19.8434 495.157 21.8783 496 24 496H168C170.122 496 172.157 495.157 173.657 493.657C175.157 492.157 176 490.122 176 488V456.16C175.981 447.47 173.144 439.02 167.915 432.079C162.686 425.138 155.348 420.08 147 417.664ZM96 312C104.448 312 112.554 315.34 118.549 321.293C124.543 327.246 127.941 335.328 128 343.776C126.866 343.502 125.806 342.983 124.894 342.256C123.982 341.529 123.24 340.612 122.72 339.568L119.16 332.432C118.654 331.416 117.937 330.519 117.057 329.801C116.177 329.083 115.155 328.561 114.057 328.268C112.96 327.976 111.813 327.921 110.693 328.107C109.573 328.292 108.505 328.714 107.56 329.344L95.656 337.28C89.0893 341.666 81.3688 344.005 73.472 344H64C64 335.513 67.3714 327.374 73.3726 321.373C79.3737 315.371 87.5131 312 96 312ZM73.472 360C84.5273 360.009 95.3363 356.735 104.528 350.592L108.912 347.672C111.431 352.115 115.321 355.624 120 357.672V368C120 374.365 117.471 380.47 112.971 384.971C108.47 389.471 102.365 392 96 392C89.6348 392 83.5303 389.471 79.0294 384.971C74.5286 380.47 72 374.365 72 368V360H73.472ZM96 408C98.6868 408.003 101.367 407.735 104 407.2V416C104.013 417.126 104.266 418.237 104.742 419.257C105.218 420.278 105.906 421.186 106.76 421.92L96 430L85.24 421.92C86.0942 421.186 86.7821 420.278 87.258 419.257C87.7339 418.237 87.9869 417.126 88 416V407.2C90.633 407.735 93.3132 408.003 96 408ZM160 480H144V456H128V480H64V456H48V480H32V456.16C32.012 450.943 33.715 445.871 36.8536 441.704C39.9922 437.537 44.3972 434.5 49.408 433.048L66.8 428.088L91.2 446.4C92.5848 447.439 94.269 448 96 448C97.731 448 99.4152 447.439 100.8 446.4L125.192 428.088L142.592 433.056C147.603 434.505 152.008 437.54 155.147 441.706C158.286 445.872 159.989 450.944 160 456.16V480Z" fill="#1F1F1F"/>
<path d="M467 417.664L440 409.952V399.792C444.95 396.097 448.973 391.301 451.75 385.783C454.527 380.265 455.982 374.177 456 368V360C458.122 360 460.157 359.157 461.657 357.657C463.157 356.157 464 354.122 464 352V344C464 331.27 458.943 319.061 449.941 310.059C440.939 301.057 428.73 296 416 296C403.27 296 391.061 301.057 382.059 310.059C373.057 319.061 368 331.27 368 344V352C368 354.122 368.843 356.157 370.343 357.657C371.843 359.157 373.878 360 376 360V368C376.018 374.177 377.473 380.265 380.25 385.783C383.027 391.301 387.05 396.097 392 399.792V409.952L365.008 417.664C356.658 420.078 349.317 425.135 344.086 432.076C338.856 439.018 336.018 447.469 336 456.16V488C336 490.122 336.843 492.157 338.343 493.657C339.843 495.157 341.878 496 344 496H488C490.122 496 492.157 495.157 493.657 493.657C495.157 492.157 496 490.122 496 488V456.16C495.981 447.47 493.144 439.02 487.915 432.079C482.686 425.138 475.348 420.08 467 417.664ZM416 312C424.448 312 432.554 315.34 438.549 321.293C444.543 327.246 447.941 335.328 448 343.776C446.866 343.502 445.806 342.983 444.894 342.256C443.982 341.529 443.24 340.612 442.72 339.568L439.16 332.432C438.654 331.416 437.937 330.519 437.057 329.801C436.177 329.083 435.155 328.561 434.057 328.268C432.96 327.976 431.813 327.921 430.693 328.107C429.573 328.292 428.505 328.714 427.56 329.344L415.656 337.28C409.089 341.666 401.369 344.005 393.472 344H384C384 335.513 387.371 327.374 393.373 321.373C399.374 315.371 407.513 312 416 312ZM393.472 360C404.527 360.009 415.336 356.735 424.528 350.592L428.912 347.672C431.431 352.115 435.321 355.624 440 357.672V368C440 374.365 437.471 380.47 432.971 384.971C428.47 389.471 422.365 392 416 392C409.635 392 403.53 389.471 399.029 384.971C394.529 380.47 392 374.365 392 368V360H393.472ZM416 408C418.687 408.003 421.367 407.735 424 407.2V416C424.013 417.126 424.266 418.237 424.742 419.257C425.218 420.278 425.906 421.186 426.76 421.92L416 430L405.24 421.92C406.094 421.186 406.782 420.278 407.258 419.257C407.734 418.237 407.987 417.126 408 416V407.2C410.633 407.735 413.313 408.003 416 408ZM480 480H464V456H448V480H384V456H368V480H352V456.16C352.012 450.943 353.715 445.871 356.854 441.704C359.992 437.537 364.397 434.5 369.408 433.048L386.8 428.088L411.2 446.4C412.585 447.439 414.269 448 416 448C417.731 448 419.415 447.439 420.8 446.4L445.192 428.088L462.592 433.056C467.603 434.505 472.008 437.54 475.147 441.706C478.286 445.872 479.989 450.944 480 456.16V480Z" fill="#1F1F1F"/>
<path d="M293.656 442.344L282.344 453.656L292.688 464H219.312L229.656 453.656L218.344 442.344L194.344 466.344C192.844 467.844 192.002 469.878 192.002 472C192.002 474.121 192.844 476.156 194.344 477.656L218.344 501.656L229.656 490.344L219.312 480H292.688L282.344 490.344L293.656 501.656L317.656 477.656C319.156 476.156 319.998 474.121 319.998 472C319.998 469.878 319.156 467.844 317.656 466.344L293.656 442.344Z" fill="#1F1F1F"/>
</svg>
