<svg width="512" height="512" viewBox="0 0 512 512" fill="none" xmlns="http://www.w3.org/2000/svg">
<path d="M467.648 213.256C467.648 211.134 466.804 209.1 465.304 207.6L448 190.296V40C448 33.6348 445.471 27.5303 440.971 23.0294C436.47 18.5286 430.365 16 424 16H120C113.635 16 107.53 18.5286 103.029 23.0294C98.5286 27.5303 96 33.6348 96 40V146.984L63.664 179.312C62.1642 180.812 61.3217 182.847 61.3217 184.968C61.3217 187.089 62.1642 189.124 63.664 190.624L96 222.96V416H56C53.8783 416 51.8434 416.843 50.3431 418.343C48.8429 419.843 48 421.878 48 424V456C48.0127 466.605 52.2311 476.772 59.7298 484.27C67.2285 491.769 77.3952 495.987 88 496H408C418.605 495.987 428.772 491.769 436.27 484.27C443.769 476.772 447.987 466.605 448 456V236.216L465.304 218.912C466.804 217.412 467.648 215.378 467.648 213.256ZM112 40C112 37.8783 112.843 35.8434 114.343 34.3431C115.843 32.8429 117.878 32 120 32H424C426.122 32 428.157 32.8429 429.657 34.3431C431.157 35.8434 432 37.8783 432 40V174.296L363.48 105.776C361.952 104.331 359.928 103.525 357.824 103.525C355.72 103.525 353.696 104.331 352.168 105.776L306.912 151.032C305.412 152.532 304.57 154.567 304.57 156.688C304.57 158.809 305.412 160.844 306.912 162.344L312.568 168L297.296 183.272L285.032 185.72L261.656 162.344C260.156 160.844 258.122 160 256 160H225.368L210.744 145.376C212.244 143.876 213.086 141.841 213.086 139.72C213.086 137.599 212.244 135.564 210.744 134.064L165.488 88.8C163.988 87.3002 161.953 86.4577 159.832 86.4577C157.711 86.4577 155.676 87.3002 154.176 88.8L112 130.984V40ZM355 334.872C354.257 335.616 353.375 336.206 352.404 336.608C351.432 337.011 350.391 337.218 349.34 337.218C348.289 337.218 347.248 337.011 346.276 336.608C345.305 336.206 344.423 335.616 343.68 334.872L332.368 323.552C330.911 322.043 330.104 320.022 330.123 317.925C330.141 315.827 330.982 313.821 332.465 312.337C333.949 310.854 335.955 310.013 338.053 309.995C340.15 309.976 342.171 310.783 343.68 312.24L354.992 323.552C355.736 324.294 356.327 325.176 356.73 326.147C357.134 327.118 357.342 328.159 357.342 329.21C357.343 330.262 357.137 331.303 356.735 332.274C356.333 333.246 355.743 334.128 355 334.872ZM334.712 351.848C334.715 352.9 334.509 353.942 334.105 354.913C333.701 355.884 333.108 356.765 332.36 357.504C330.838 358.96 328.814 359.772 326.708 359.772C324.602 359.772 322.578 358.96 321.056 357.504L309.744 346.192C309.001 345.449 308.411 344.567 308.009 343.597C307.606 342.626 307.399 341.586 307.398 340.535C307.398 339.484 307.605 338.443 308.006 337.473C308.408 336.502 308.997 335.619 309.74 334.876C310.483 334.133 311.365 333.543 312.335 333.141C313.306 332.738 314.346 332.531 315.397 332.53C316.448 332.53 317.489 332.737 318.459 333.138C319.43 333.54 320.313 334.129 321.056 334.872L332.368 346.192C333.113 346.933 333.704 347.814 334.107 348.785C334.509 349.756 334.715 350.797 334.712 351.848ZM309.744 380.136C309.001 380.88 308.119 381.47 307.148 381.872C306.176 382.275 305.135 382.482 304.084 382.482C303.033 382.482 301.992 382.275 301.02 381.872C300.049 381.47 299.167 380.88 298.424 380.136L287.112 368.8C286.368 368.057 285.778 367.175 285.376 366.204C284.973 365.232 284.766 364.191 284.766 363.14C284.766 362.089 284.973 361.048 285.376 360.076C285.778 359.105 286.368 358.223 287.112 357.48C288.612 355.985 290.643 355.146 292.76 355.146C294.877 355.146 296.908 355.985 298.408 357.48L309.736 368.8C310.483 369.543 311.075 370.426 311.48 371.398C311.885 372.37 312.094 373.413 312.094 374.466C312.095 375.52 311.888 376.563 311.484 377.536C311.081 378.508 310.49 379.392 309.744 380.136ZM275.8 346.192C272.848 349.164 270.727 352.86 269.65 356.908C268.573 360.957 268.578 365.218 269.664 369.264L267.312 371.664C265.811 373.104 263.809 373.903 261.729 373.891C259.649 373.879 257.656 373.058 256.171 371.602C254.687 370.145 253.828 368.168 253.776 366.089C253.725 364.009 254.485 361.992 255.896 360.464L256 360.384L271.064 345.312L278.608 337.792L267.312 326.4L261.64 332.072L244.632 349.024L244.56 349.112C243.026 350.479 241.025 351.204 238.972 351.136C236.918 351.068 234.97 350.213 233.53 348.747C232.09 347.281 231.269 345.318 231.237 343.263C231.206 341.209 231.966 339.221 233.36 337.712L256 315.08L244.688 303.768L222.056 326.4C220.534 327.858 218.508 328.672 216.4 328.672C214.292 328.672 212.266 327.858 210.744 326.4C209.247 324.9 208.406 322.867 208.406 320.748C208.406 318.629 209.247 316.596 210.744 315.096L233.368 292.464L222.056 281.152L199.432 303.76C198.694 304.524 197.811 305.134 196.835 305.553C195.859 305.972 194.809 306.193 193.747 306.202C192.685 306.211 191.632 306.009 190.648 305.607C189.665 305.204 188.772 304.61 188.021 303.859C187.27 303.108 186.676 302.215 186.273 301.232C185.871 300.248 185.669 299.195 185.678 298.133C185.687 297.071 185.908 296.021 186.327 295.045C186.746 294.069 187.356 293.186 188.12 292.448L241.44 239.072H241.856C249.703 239.093 257.38 236.791 263.92 232.456L292.8 261.336C297.313 265.777 303.397 268.255 309.729 268.23C316.06 268.205 322.125 265.679 326.602 261.202C331.08 256.726 333.607 250.662 333.634 244.33C333.66 237.999 331.184 231.914 326.744 227.4L298.664 199.32L369.184 269.84L366.832 272.192C363.392 271.24 359.782 271.077 356.271 271.714C352.759 272.351 349.436 273.772 346.55 275.871C343.664 277.97 341.288 280.693 339.6 283.837C337.912 286.982 336.955 290.466 336.8 294.032C330.877 294.281 325.263 296.746 321.07 300.937C316.878 305.128 314.411 310.741 314.16 316.664C308.201 316.913 302.556 319.405 298.358 323.641C294.159 327.877 291.717 333.543 291.52 339.504C285.632 339.705 280.028 342.089 275.8 346.192ZM142.864 235.88L131.544 224.568L199.432 156.688L210.744 168L142.864 235.88ZM225.368 176H252.688L315.4 238.712C316.143 239.455 316.732 240.338 317.134 241.309C317.535 242.279 317.742 243.32 317.742 244.371C317.741 245.422 317.534 246.462 317.131 247.433C316.729 248.403 316.139 249.285 315.396 250.028C314.653 250.771 313.77 251.36 312.799 251.762C311.829 252.163 310.788 252.37 309.737 252.37C308.686 252.369 307.646 252.162 306.675 251.759C305.705 251.357 304.823 250.767 304.08 250.024L270.144 216.08C268.616 214.635 266.592 213.829 264.488 213.829C262.384 213.829 260.36 214.635 258.832 216.08C254.262 220.449 248.183 222.888 241.86 222.888C235.537 222.888 229.458 220.449 224.888 216.08L213.6 227.392C216.513 230.234 219.845 232.611 223.48 234.44L182.48 275.48L154.176 247.2L225.368 176ZM366.312 312.248L355 300.936C353.5 299.436 352.658 297.401 352.658 295.28C352.658 293.159 353.5 291.124 355 289.624C356.5 288.124 358.535 287.282 360.656 287.282C362.777 287.282 364.812 288.124 366.312 289.624L377.6 300.936C379.1 302.436 379.942 304.471 379.942 306.592C379.942 308.713 379.1 310.748 377.6 312.248C376.079 313.699 374.058 314.509 371.956 314.509C369.854 314.509 367.833 313.699 366.312 312.248ZM380.456 258.504L312.576 190.624L323.88 179.312L391.768 247.2L380.456 258.504ZM159.832 105.776L193.776 139.712L114.576 218.912L80.64 184.968L159.832 105.776ZM88 480C81.6348 480 75.5303 477.471 71.0294 472.971C66.5286 468.47 64 462.365 64 456V432H368V456C367.992 464.656 370.8 473.08 376 480H88ZM432 456C432 459.152 431.379 462.273 430.173 465.184C428.967 468.096 427.199 470.742 424.971 472.971C422.742 475.199 420.096 476.967 417.184 478.173C414.273 479.379 411.152 480 408 480C404.848 480 401.727 479.379 398.816 478.173C395.904 476.967 393.258 475.199 391.029 472.971C388.801 470.742 387.033 468.096 385.827 465.184C384.621 462.273 384 459.152 384 456V424C384 421.878 383.157 419.843 381.657 418.343C380.157 416.843 378.122 416 376 416H112V237.712C112.824 238.025 113.695 238.198 114.576 238.224C116.698 238.224 118.732 237.38 120.232 235.88L137.208 252.848L172.192 287.832C170.47 291.376 169.655 295.293 169.822 299.23C169.989 303.167 171.132 307.001 173.147 310.386C175.163 313.772 177.989 316.604 181.371 318.627C184.752 320.65 188.583 321.801 192.52 321.976C192.773 327.899 195.24 333.512 199.432 337.704C203.624 341.896 209.237 344.363 215.16 344.616C215.414 350.532 217.881 356.137 222.073 360.32C226.265 364.503 231.875 366.959 237.792 367.2C238.039 371.815 239.616 376.26 242.332 380C245.049 383.739 248.789 386.612 253.102 388.273C257.415 389.934 262.117 390.312 266.64 389.36C271.162 388.409 275.313 386.17 278.592 382.912L287.096 391.416C290.365 394.699 294.519 396.96 299.05 397.925C303.581 398.89 308.295 398.517 312.619 396.852C316.942 395.186 320.688 392.299 323.4 388.543C326.112 384.787 327.674 380.324 327.896 375.696C333.821 375.447 339.435 372.981 343.628 368.788C347.821 364.595 350.287 358.981 350.536 353.056C356.455 352.81 362.066 350.349 366.255 346.159C370.445 341.97 372.906 336.359 373.152 330.44C377.787 330.223 382.258 328.664 386.022 325.952C389.787 323.24 392.681 319.492 394.354 315.164C396.026 310.836 396.405 306.116 395.443 301.577C394.481 297.038 392.22 292.877 388.936 289.6L380.472 281.136L386.136 275.472C386.136 275.472 386.192 275.376 386.232 275.336L403.08 258.48L408.736 264.144C410.236 265.644 412.271 266.486 414.392 266.486C416.513 266.486 418.548 265.644 420.048 264.144L432 252.208V456ZM414.4 247.2L323.88 156.688L357.824 122.744L448.336 213.256L414.4 247.2Z" fill="#1F1F1F"/>
<path d="M184 64H216V80H184V64Z" fill="#1F1F1F"/>
<path d="M232 64H392V80H232V64Z" fill="#1F1F1F"/>
<path d="M208 96H272V112H208V96Z" fill="#1F1F1F"/>
<path d="M288 96H320V112H288V96Z" fill="#1F1F1F"/>
<path d="M368 368H400V384H368V368Z" fill="#1F1F1F"/>
<path d="M144 368H208V384H144V368Z" fill="#1F1F1F"/>
<path d="M144 336H176V352H144V336Z" fill="#1F1F1F"/>
</svg>
