<svg width="512" height="512" viewBox="0 0 512 512" fill="none" xmlns="http://www.w3.org/2000/svg">
<path d="M495.504 390.4L461.584 356.4C460.841 355.655 459.958 355.063 458.986 354.66C458.014 354.256 456.972 354.048 455.92 354.048C454.864 354.055 453.82 354.27 452.848 354.682C451.876 355.094 450.995 355.694 450.256 356.448L444.608 362.096L440.512 358L429.76 314.944C429.408 313.538 428.684 312.253 427.664 311.224L344 227.496V128C344 126.548 343.604 125.124 342.856 123.88L320 85.784V80H328C330.122 80 332.157 79.1571 333.657 77.6569C335.157 76.1566 336 74.1217 336 72V24C336 21.8783 335.157 19.8434 333.657 18.3431C332.157 16.8429 330.122 16 328 16H200C197.878 16 195.843 16.8429 194.343 18.3431C192.843 19.8434 192 21.8783 192 24V72C192 74.1217 192.843 76.1566 194.343 77.6569C195.843 79.1571 197.878 80 200 80V84.688L170.344 114.344C168.844 115.844 168 117.878 168 120V216C168.014 219.262 168.701 222.487 170.016 225.472L84.3361 311.2C83.3158 312.229 82.5918 313.514 82.2401 314.92L71.4961 357.992L67.3761 362.104L61.7281 356.456C60.2278 354.956 58.1934 354.114 56.0721 354.114C53.9507 354.114 51.9163 354.956 50.4161 356.456L16.4721 390.4C14.9723 391.9 14.1298 393.935 14.1298 396.056C14.1298 398.177 14.9723 400.212 16.4721 401.712L106.984 492.216C108.484 493.716 110.519 494.558 112.64 494.558C114.761 494.558 116.796 493.716 118.296 492.216L152.232 458.272C153.724 456.773 154.562 454.743 154.562 452.628C154.562 450.513 153.724 448.483 152.232 446.984L155.536 443.68H197.52C199.642 443.68 201.676 442.836 203.176 441.336L256 388.448L308.8 441.336C310.3 442.836 312.334 443.68 314.456 443.68H356.424L359.744 447C358.256 448.499 357.422 450.524 357.422 452.636C357.422 454.748 358.256 456.773 359.744 458.272L393.664 492.192C395.164 493.692 397.199 494.534 399.32 494.534C401.441 494.534 403.476 493.692 404.976 492.192L495.456 401.712C496.962 400.218 497.813 398.187 497.822 396.066C497.831 393.945 496.997 391.907 495.504 390.4ZM208 32H320V64H208V32ZM213.656 93.656C215.156 92.1561 216 90.1216 216 88V80H304V88C304.001 89.4517 304.396 90.8759 305.144 92.12L328 130.216V215.2C322.8 213.479 317.179 213.513 312 215.296V200H296V224.8L291.896 220.696C288.643 217.422 284.511 215.16 280 214.184V200H264V216.288C259.265 218.638 255.497 222.564 253.344 227.392L252.296 226.344C250.999 225.064 249.557 223.939 248 222.992V200H232V219.616C226.837 220.311 222.042 222.674 218.344 226.344C216.969 227.75 215.776 229.322 214.792 231.024C214.382 229.645 213.846 228.306 213.192 227.024C215.019 223.636 215.983 219.849 216 216V168H200V215.2C194.823 213.376 189.177 213.376 184 215.2V123.312L213.656 93.656ZM112.64 475.248L33.4401 396.048L56.0721 373.424L135.272 452.624L112.64 475.248ZM194.2 427.68H152.24C150.118 427.68 148.084 428.524 146.584 430.024L140.944 435.624L78.6961 373.416L84.3761 367.736C85.3998 366.708 86.1268 365.423 86.4801 364.016L97.2241 320.968L186.024 232.048C187.508 230.555 189.516 229.7 191.621 229.665C193.726 229.629 195.762 230.415 197.296 231.856C197.424 232.008 197.544 232.16 197.68 232.304C199.069 233.814 199.819 235.804 199.771 237.856C199.723 239.907 198.882 241.86 197.424 243.304L157.824 282.904L169.136 294.216L208.736 254.616C210.114 253.197 211.312 251.615 212.304 249.904C213.376 253.827 215.439 257.409 218.296 260.304L219.296 261.304C216.823 262.465 214.564 264.037 212.616 265.952C208.814 269.788 206.426 274.799 205.84 280.168L202.376 283.632L180.456 305.552L191.768 316.864L210.832 297.8C211.385 298.536 211.981 299.238 212.616 299.904L222.016 309.272L203.096 328.192L214.408 339.504L233.344 320.568L234.4 321.616C234.59 321.858 234.796 322.088 235.016 322.304L244.616 331.904L203.096 373.384L214.408 384.696L235.208 363.896C236.343 367.475 238.309 370.734 240.944 373.408L244.648 377.12L194.2 427.68ZM317.8 427.68L252.296 362.08C251.551 361.337 250.96 360.454 250.557 359.482C250.153 358.51 249.946 357.468 249.946 356.416C249.946 355.364 250.153 354.322 250.557 353.35C250.96 352.378 251.551 351.495 252.296 350.752C253.297 349.716 254.588 349.007 256 348.72C256.653 348.721 257.303 348.64 257.936 348.48C259.98 348.447 261.957 349.21 263.448 350.608L297.512 384.672L308.824 373.36L223.864 288.48C222.471 287.078 221.672 285.192 221.632 283.216C221.585 282.165 221.745 281.115 222.104 280.127C222.463 279.138 223.014 278.23 223.724 277.454C224.434 276.678 225.291 276.05 226.244 275.606C227.197 275.161 228.229 274.909 229.28 274.864C229.58 274.904 229.882 274.928 230.184 274.936C232.096 275.083 233.897 275.895 235.272 277.232L297.512 339.472L308.824 328.16L229.624 248.96C228.879 248.217 228.288 247.334 227.885 246.362C227.481 245.39 227.274 244.348 227.274 243.296C227.274 242.244 227.481 241.202 227.885 240.23C228.288 239.258 228.879 238.375 229.624 237.632C230.374 236.888 231.265 236.302 232.244 235.908C233.224 235.514 234.272 235.319 235.328 235.336C236.144 235.34 236.955 235.475 237.728 235.736C238.939 236.084 240.041 236.737 240.928 237.632L320.128 316.832L331.44 305.52L269.184 243.2C267.786 241.794 266.987 239.902 266.952 237.92C266.911 236.828 267.095 235.74 267.491 234.722C267.888 233.703 268.488 232.777 269.256 232C270.548 230.765 272.192 229.963 273.96 229.704C274.263 229.644 274.571 229.617 274.88 229.624C275.942 229.628 276.993 229.842 277.972 230.254C278.951 230.666 279.839 231.267 280.584 232.024L342.824 294.264L354.136 282.952L314.536 243.352C313.791 242.609 313.2 241.726 312.797 240.754C312.393 239.782 312.186 238.74 312.186 237.688C312.186 236.636 312.393 235.594 312.797 234.622C313.2 233.65 313.791 232.767 314.536 232.024C316.059 230.561 318.089 229.744 320.2 229.744C322.312 229.744 324.341 230.561 325.864 232.024L414.776 320.968L425.52 364C425.873 365.407 426.6 366.692 427.624 367.72L433.288 373.384L371.04 435.648L365.44 430.048C363.94 428.548 361.906 427.704 359.784 427.704L317.8 427.68ZM399.4 475.248L376.752 452.6L455.952 373.4L478.544 396.056L399.4 475.248Z" fill="#1F1F1F"/>
<path d="M157.2 140.488L146.8 128.328C125.128 146.89 108.533 170.66 98.5761 197.401C88.6188 224.142 85.6264 252.976 89.8801 281.192L105.696 278.792C104.565 271.247 103.998 263.629 104 256C103.993 234.045 108.745 212.35 117.929 192.408C127.113 172.467 140.511 154.753 157.2 140.488Z" fill="#1F1F1F"/>
<path d="M264.392 423.8L263.592 407.8C258.552 408.048 253.416 408.048 248.392 407.8L247.592 423.8C250.368 423.928 253.192 424 255.984 424C258.776 424 261.6 423.928 264.392 423.8Z" fill="#1F1F1F"/>
<path d="M423.2 272.8C423.752 267.272 424 261.6 424 256C424.008 231.734 418.756 207.755 408.605 185.714C398.454 163.674 383.645 144.095 365.2 128.328L354.8 140.488C371.489 154.753 384.887 172.467 394.071 192.408C403.255 212.35 408.007 234.045 408 256C408 261.088 407.744 266.208 407.248 271.2L423.2 272.8Z" fill="#1F1F1F"/>
<path d="M76.0001 294.337C67.3341 253.418 72.8431 210.77 91.622 173.396C110.401 136.023 141.333 106.149 179.336 88.6805L172.664 74.1445C131.36 93.1308 97.7409 125.6 77.3297 166.219C56.9184 206.838 50.9286 253.191 60.3441 297.665L76.0001 294.337Z" fill="#1F1F1F"/>
<path d="M225.328 437.456L222.672 453.232C244.737 456.923 267.263 456.923 289.328 453.232L286.672 437.456C266.363 440.832 245.637 440.832 225.328 437.456Z" fill="#1F1F1F"/>
<path d="M440 256C440.005 268.883 438.664 281.731 436 294.336L451.656 297.664C460.406 256.332 455.867 213.292 438.687 174.696C421.507 136.099 392.566 103.921 356 82.7598L348 96.6158C375.929 112.822 399.122 136.067 415.265 164.033C431.407 191.999 439.936 223.709 440 256Z" fill="#1F1F1F"/>
</svg>
