<svg width="512" height="512" viewBox="0 0 512 512" fill="none" xmlns="http://www.w3.org/2000/svg">
<path d="M176 176C171.757 176 167.687 174.314 164.686 171.314C161.686 168.313 160 164.243 160 160H144C144 168.487 147.371 176.626 153.373 182.627C159.374 188.629 167.513 192 176 192C184.487 192 192.626 188.629 198.627 182.627C204.629 176.626 208 168.487 208 160H192C192 164.243 190.314 168.313 187.314 171.314C184.313 174.314 180.243 176 176 176Z" fill="#1F1F1F"/>
<path d="M489.6 352.16L467.704 347.776C465.931 342.027 463.625 336.456 460.816 331.136L473.2 312.552C474.224 311.014 474.684 309.168 474.502 307.329C474.32 305.49 473.506 303.771 472.2 302.464L449.568 279.832C448.261 278.526 446.542 277.712 444.703 277.53C442.864 277.348 441.018 277.808 439.48 278.832L420.856 291.2C415.543 288.38 409.974 286.071 404.224 284.304L399.84 262.4C399.471 260.593 398.489 258.969 397.061 257.803C395.632 256.636 393.844 256 392 256H360C358.156 256 356.368 256.636 354.939 257.803C353.511 258.969 352.529 260.593 352.16 262.4L347.776 284.296C342.026 286.063 336.457 288.372 331.144 291.192L316.448 281.4C311.66 268.36 302.205 257.559 289.912 251.088C296.733 236.596 297.855 220.068 293.054 204.787C288.254 189.506 277.883 176.589 264 168.6V104C264 80.6609 254.729 58.2778 238.225 41.7746C221.722 25.2714 199.339 16 176 16C152.661 16 130.278 25.2714 113.775 41.7746C97.2714 58.2778 88 80.6609 88 104V168.6C74.118 176.582 63.745 189.491 58.9403 204.766C54.1356 220.042 55.2507 236.565 62.064 251.056C52.9962 255.78 45.3981 262.9 40.0971 271.643C34.7962 280.386 31.9955 290.416 32 300.64V440C32 442.122 32.8429 444.157 34.3432 445.657C35.8434 447.157 37.8783 448 40 448H278.76C279.051 448.555 279.412 449.071 279.832 449.536L302.464 472.168C303.771 473.474 305.49 474.288 307.329 474.47C309.168 474.652 311.014 474.192 312.552 473.168L331.144 460.8C336.457 463.62 342.026 465.929 347.776 467.696L352.16 489.6C352.529 491.407 353.511 493.031 354.939 494.197C356.368 495.364 358.156 496 360 496H392C393.844 496 395.632 495.364 397.061 494.197C398.489 493.031 399.471 491.407 399.84 489.6L404.224 467.704C409.974 465.937 415.543 463.628 420.856 460.808L439.448 473.2C440.986 474.224 442.832 474.684 444.671 474.502C446.51 474.32 448.229 473.506 449.536 472.2L472.168 449.568C473.474 448.261 474.288 446.542 474.47 444.703C474.652 442.864 474.192 441.018 473.168 439.48L460.8 420.864C463.609 415.544 465.915 409.973 467.688 404.224L489.6 399.84C491.407 399.471 493.031 398.489 494.197 397.061C495.364 395.632 496 393.844 496 392V360C496 358.156 495.364 356.368 494.197 354.939C493.031 353.511 491.407 352.529 489.6 352.16ZM252.584 180.672C260.82 184.514 267.781 190.639 272.641 198.319C277.5 205.999 280.055 214.912 280 224C280 231.462 278.215 238.817 274.792 245.448L208 226V216.4C219.997 210.448 230.096 201.268 237.162 189.891C244.229 178.514 247.982 165.392 248 152V173.44C248 174.956 248.431 176.441 249.243 177.721C250.055 179.001 251.213 180.025 252.584 180.672ZM176 208C161.153 207.983 146.919 202.078 136.421 191.579C125.922 181.081 120.017 166.847 120 152V128H134.856C146.418 128.033 157.872 125.772 168.555 121.347C179.237 116.923 188.935 110.423 197.088 102.224L197.808 101.504L200 105.888C203.016 111.973 207.541 117.184 213.143 121.024C218.745 124.864 225.237 127.205 232 127.824V152C231.983 166.847 226.078 181.081 215.579 191.579C205.081 202.078 190.847 207.983 176 208ZM160 232V222.144C170.523 224.619 181.477 224.619 192 222.144V232C192.001 233.732 192.563 235.417 193.603 236.802C194.643 238.187 196.105 239.197 197.768 239.68L215.256 244.776L176 312.12L136.744 244.8L154.232 239.704C155.899 239.22 157.364 238.206 158.404 236.816C159.445 235.427 160.005 233.736 160 232ZM104 104C104 84.9044 111.586 66.5909 125.088 53.0883C138.591 39.5857 156.904 32 176 32C195.096 32 213.409 39.5857 226.912 53.0883C240.414 66.5909 248 84.9044 248 104V120C248 117.878 247.157 115.843 245.657 114.343C244.157 112.843 242.122 112 240 112H235.776C231.316 112.016 226.941 110.781 223.148 108.437C219.354 106.092 216.293 102.732 214.312 98.736L207.2 84.424C206.633 83.2924 205.805 82.3115 204.785 81.562C203.765 80.8126 202.581 80.3159 201.332 80.1129C200.082 79.9098 198.802 80.0062 197.597 80.3941C196.392 80.7819 195.296 81.4502 194.4 82.344L185.832 90.912C179.154 97.6258 171.209 102.947 162.458 106.567C153.708 110.187 144.326 112.034 134.856 112H112C109.878 112 107.843 112.843 106.343 114.343C104.843 115.843 104 117.878 104 120V104ZM99.416 180.672C100.782 180.027 101.937 179.009 102.748 177.734C103.56 176.46 103.994 174.982 104 173.472V152C104.018 165.392 107.771 178.514 114.838 189.891C121.904 201.268 132.003 210.448 144 216.4V226L77.216 245.456C73.7879 238.823 71.9993 231.466 72 224C71.9455 214.912 74.4995 205.999 79.3591 198.319C84.2187 190.639 91.1797 184.514 99.416 180.672ZM48 300.64C47.9773 292.229 50.6121 284.027 55.5284 277.202C60.4446 270.378 67.391 265.282 75.376 262.64C75.84 262.52 77.592 262 77.592 262L120.904 249.384L169.088 332C169.792 333.209 170.801 334.211 172.014 334.908C173.227 335.605 174.601 335.972 176 335.972C177.399 335.972 178.773 335.605 179.986 334.908C181.199 334.211 182.208 333.209 182.912 332L231.096 249.36L274.4 262L275.2 262.24C275.704 262.392 276.12 262.504 276.072 262.488C281.13 264.136 285.813 266.768 289.85 270.234C293.886 273.699 297.197 277.929 299.592 282.68L279.808 302.464C278.502 303.771 277.688 305.49 277.506 307.329C277.324 309.168 277.784 311.014 278.808 312.552L291.2 331.136C288.391 336.456 286.085 342.027 284.312 347.776L279.792 348.68C279.543 339.83 277.27 331.155 273.145 323.32C269.021 315.486 263.156 308.702 256 303.488V288H240V308C240 309.454 240.396 310.881 241.146 312.127C241.895 313.373 242.971 314.391 244.256 315.072C250.519 318.891 255.651 324.312 259.121 330.775C262.592 337.238 264.276 344.509 264 351.84L262.4 352.16C260.593 352.529 258.969 353.511 257.803 354.939C256.636 356.368 256 358.156 256 360V378.184C252.999 382.641 248.982 386.32 244.28 388.92C242.989 389.598 241.908 390.616 241.154 391.864C240.399 393.112 240 394.542 240 396V432H112V396C112 394.546 111.604 393.119 110.854 391.873C110.105 390.627 109.029 389.609 107.744 388.928C101.67 384.871 96.6907 379.378 93.247 372.937C89.8033 366.496 88.0016 359.304 88.0016 352C88.0016 344.696 89.8033 337.504 93.247 331.063C96.6907 324.622 101.67 319.129 107.744 315.072C109.029 314.391 110.105 313.373 110.854 312.127C111.604 310.881 112 309.454 112 308V288H96V303.488C88.5385 309.184 82.4915 316.524 78.3293 324.938C74.167 333.352 72.0017 342.613 72.0017 352C72.0017 361.387 74.167 370.648 78.3293 379.062C82.4915 387.476 88.5385 394.816 96 400.512V432H48V300.64ZM283.8 432H256V400.52C257.064 399.8 258.072 398.984 259.08 398.176C260.046 398.993 261.197 399.564 262.432 399.84L284.328 404.224C286.101 409.973 288.407 415.544 291.216 420.864L283.8 432ZM480 385.44L459.712 389.504C458.225 389.8 456.853 390.512 455.756 391.557C454.658 392.602 453.88 393.938 453.512 395.408C451.613 403.04 448.588 410.347 444.536 417.088C443.756 418.388 443.362 419.883 443.398 421.398C443.435 422.914 443.902 424.388 444.744 425.648L456.208 442.864L442.856 456.216L425.648 444.736C424.387 443.895 422.912 443.43 421.397 443.394C419.882 443.359 418.387 443.755 417.088 444.536C410.349 448.594 403.042 451.622 395.408 453.52C393.937 453.886 392.601 454.662 391.554 455.759C390.507 456.855 389.794 458.226 389.496 459.712L385.448 480H366.552L362.496 459.712C362.199 458.227 361.486 456.857 360.441 455.76C359.396 454.664 358.061 453.887 356.592 453.52C348.958 451.622 341.651 448.594 334.912 444.536C333.613 443.755 332.118 443.359 330.603 443.394C329.088 443.43 327.613 443.895 326.352 444.736L309.144 456.216L295.792 442.864L307.256 425.648C308.098 424.388 308.565 422.914 308.602 421.398C308.638 419.883 308.244 418.388 307.464 417.088C303.412 410.347 300.387 403.04 298.488 395.408C298.12 393.938 297.342 392.602 296.244 391.557C295.147 390.512 293.775 389.8 292.288 389.504L272 385.44V366.56L292.288 362.496C293.775 362.2 295.147 361.488 296.244 360.443C297.342 359.398 298.12 358.062 298.488 356.592C300.387 348.96 303.412 341.653 307.464 334.912C308.244 333.612 308.638 332.117 308.602 330.602C308.565 329.086 308.098 327.612 307.256 326.352L295.792 309.136L309.144 295.784L326.352 307.264C327.613 308.105 329.088 308.57 330.603 308.606C332.118 308.641 333.613 308.245 334.912 307.464C341.651 303.406 348.958 300.378 356.592 298.48C358.061 298.113 359.396 297.336 360.441 296.24C361.486 295.143 362.199 293.773 362.496 292.288L366.552 272H385.448L389.496 292.288C389.794 293.774 390.507 295.145 391.554 296.241C392.601 297.338 393.937 298.114 395.408 298.48C403.042 300.378 410.349 303.406 417.088 307.464C418.387 308.245 419.882 308.641 421.397 308.606C422.912 308.57 424.387 308.105 425.648 307.264L442.856 295.784L456.208 309.136L444.744 326.352C443.902 327.612 443.435 329.086 443.398 330.602C443.362 332.117 443.756 333.612 444.536 334.912C448.588 341.653 451.613 348.96 453.512 356.592C453.88 358.062 454.658 359.398 455.756 360.443C456.853 361.488 458.225 362.2 459.712 362.496L480 366.56V385.44Z" fill="#1F1F1F"/>
<path d="M376 320C364.924 320 354.097 323.284 344.888 329.438C335.679 335.591 328.501 344.337 324.263 354.57C320.024 364.802 318.915 376.062 321.076 386.925C323.237 397.788 328.57 407.766 336.402 415.598C344.234 423.43 354.212 428.763 365.075 430.924C375.938 433.085 387.198 431.976 397.43 427.737C407.663 423.499 416.409 416.321 422.562 407.112C428.716 397.903 432 387.076 432 376C431.983 361.153 426.078 346.919 415.579 336.421C405.081 325.922 390.847 320.017 376 320ZM376 416C368.089 416 360.355 413.654 353.777 409.259C347.199 404.864 342.072 398.616 339.045 391.307C336.017 383.998 335.225 375.956 336.769 368.196C338.312 360.437 342.122 353.31 347.716 347.716C353.31 342.122 360.437 338.312 368.196 336.769C375.956 335.225 383.998 336.017 391.307 339.045C398.616 342.072 404.864 347.199 409.259 353.777C413.654 360.355 416 368.089 416 376C415.987 386.605 411.769 396.772 404.27 404.27C396.772 411.769 386.605 415.987 376 416Z" fill="#1F1F1F"/>
<path d="M316.8 235.952L323.032 250.68C349.652 239.466 379.148 237.008 407.257 243.66C435.366 250.313 460.631 265.732 479.4 287.688L491.552 277.288C470.578 252.748 442.341 235.516 410.926 228.085C379.51 220.654 346.546 223.41 316.8 235.952Z" fill="#1F1F1F"/>
<path d="M376 207.999C414.992 208.029 452.764 221.603 482.856 246.399L493.048 234.063C472.314 216.999 448.104 204.669 422.11 197.934C396.115 191.199 368.963 190.222 342.552 195.071L345.448 210.807C355.527 208.954 365.752 208.014 376 207.999Z" fill="#1F1F1F"/>
<path d="M330.176 214.328L325.824 198.928C320.224 200.528 314.56 202.408 309.088 204.528L314.912 219.44C319.904 217.504 325.04 215.776 330.176 214.328Z" fill="#1F1F1F"/>
</svg>
